<svg width="671" height="109" viewBox="0 0 671 109" fill="none" xmlns="http://www.w3.org/2000/svg">
<path d="M75.8011 108.588H0.036537V0.374524H21.6943V86.9302H75.8011V108.588ZM150.811 65.3479V43.6901C150.811 40.7219 150.232 37.9298 149.075 35.3137C147.969 32.6474 146.434 30.3332 144.472 28.3712C142.51 26.4091 140.196 24.8747 137.53 23.768C134.914 22.6109 132.121 22.0323 129.153 22.0323C126.185 22.0323 123.368 22.6109 120.701 23.768C118.085 24.8747 115.796 26.4091 113.834 28.3712C111.872 30.3332 110.313 32.6474 109.156 35.3137C108.049 37.9298 107.495 40.7219 107.495 43.6901V65.3479H150.811ZM172.469 108.588H150.811V86.9302H107.495V108.588H85.9131V43.6901C85.9131 37.7034 87.045 32.094 89.3089 26.8619C91.5728 21.5795 94.6416 16.9763 98.5153 13.0523C102.439 9.1282 107.017 6.03423 112.25 3.77034C117.532 1.50646 123.166 0.374524 129.153 0.374524C135.14 0.374524 140.749 1.50646 145.981 3.77034C151.264 6.03423 155.867 9.1282 159.791 13.0523C163.715 16.9763 166.809 21.5795 169.073 26.8619C171.337 32.094 172.469 37.7034 172.469 43.6901V108.588ZM271.551 0.374524L236.008 108.588H214.351L178.959 0.374524H203.559L225.142 72.5923L246.8 0.374524H271.551ZM343.241 65.3479V43.6901C343.241 40.7219 342.662 37.9298 341.505 35.3137C340.398 32.6474 338.864 30.3332 336.902 28.3712C334.94 26.4091 332.626 24.8747 329.959 23.768C327.343 22.6109 324.551 22.0323 321.583 22.0323C318.615 22.0323 315.798 22.6109 313.131 23.768C310.515 24.8747 308.226 26.4091 306.264 28.3712C304.302 30.3332 302.743 32.6474 301.585 35.3137C300.479 37.9298 299.925 40.7219 299.925 43.6901V65.3479H343.241ZM364.899 108.588H343.241V86.9302H299.925V108.588H278.343V43.6901C278.343 37.7034 279.475 32.094 281.739 26.8619C284.003 21.5795 287.071 16.9763 290.945 13.0523C294.869 9.1282 299.447 6.03423 304.679 3.77034C309.962 1.50646 315.596 0.374524 321.583 0.374524C327.57 0.374524 333.179 1.50646 338.411 3.77034C343.694 6.03423 348.297 9.1282 352.221 13.0523C356.145 16.9763 359.239 21.5795 361.503 26.8619C363.767 32.094 364.899 37.7034 364.899 43.6901V108.588ZM470.245 108.588H447.077L405.347 37.3512V108.588H383.689V0.374524H406.856L448.587 71.6868V0.374524H470.245V108.588ZM539.066 108.588H517.484V74.7053C512.705 73.4979 508.303 71.561 504.278 68.8946C500.304 66.2283 496.883 63.0589 494.015 59.3863C491.148 55.6635 488.909 51.5634 487.299 47.0859C485.74 42.5582 484.96 37.804 484.96 32.8235V0.374524H506.618V32.8235C506.618 35.7917 507.171 38.609 508.278 41.2753C509.435 43.8913 510.994 46.1804 512.956 48.1424C514.918 50.1044 517.207 51.664 519.823 52.8211C522.49 53.9279 525.307 54.4813 528.275 54.4813C531.244 54.4813 534.036 53.9279 536.652 52.8211C539.318 51.664 541.632 50.1044 543.594 48.1424C545.556 46.1804 547.091 43.8913 548.197 41.2753C549.355 38.609 549.933 35.7917 549.933 32.8235V0.374524H571.515V32.8235C571.515 37.804 570.71 42.5582 569.101 47.0859C567.541 51.5634 565.327 55.6635 562.46 59.3863C559.592 63.0589 556.171 66.2283 552.197 68.8946C548.223 71.561 543.846 73.4979 539.066 74.7053V108.588ZM648.714 65.3479V43.6901C648.714 40.7219 648.135 37.9298 646.978 35.3137C645.871 32.6474 644.337 30.3332 642.375 28.3712C640.413 26.4091 638.099 24.8747 635.432 23.768C632.816 22.6109 630.024 22.0323 627.056 22.0323C624.088 22.0323 621.271 22.6109 618.604 23.768C615.988 24.8747 613.699 26.4091 611.737 28.3712C609.775 30.3332 608.215 32.6474 607.058 35.3137C605.952 37.9298 605.398 40.7219 605.398 43.6901V65.3479H648.714ZM670.372 108.588H648.714V86.9302H605.398V108.588H583.816V43.6901C583.816 37.7034 584.948 32.094 587.212 26.8619C589.476 21.5795 592.544 16.9763 596.418 13.0523C600.342 9.1282 604.92 6.03423 610.152 3.77034C615.435 1.50646 621.069 0.374524 627.056 0.374524C633.043 0.374524 638.652 1.50646 643.884 3.77034C649.167 6.03423 653.77 9.1282 657.694 13.0523C661.618 16.9763 664.712 21.5795 666.976 26.8619C669.24 32.094 670.372 37.7034 670.372 43.6901V108.588Z" fill="#BACDB0"/>
</svg>
