<svg width="692" height="110" viewBox="0 0 692 110" fill="none" xmlns="http://www.w3.org/2000/svg">
<path d="M54.71 110H33.1276V76.1173C28.3483 74.9099 23.9463 72.973 19.9217 70.3066C15.9473 67.6403 12.5263 64.4708 9.65875 60.7983C6.79116 57.0755 4.55244 52.9754 2.94257 48.4979C1.383 43.9702 0.603224 39.216 0.603224 34.2355V1.78651H22.261V34.2355C22.261 37.2037 22.8144 40.0209 23.9212 42.6873C25.0783 45.3033 26.6378 47.5924 28.5999 49.5544C30.5619 51.5164 32.8509 53.076 35.467 54.2331C38.1333 55.3399 40.9506 55.8933 43.9188 55.8933C46.887 55.8933 49.6791 55.3399 52.2952 54.2331C54.9615 53.076 57.2757 51.5164 59.2377 49.5544C61.1998 47.5924 62.7342 45.3033 63.841 42.6873C64.998 40.0209 65.5766 37.2037 65.5766 34.2355V1.78651H87.1589V34.2355C87.1589 39.216 86.354 43.9702 84.7441 48.4979C83.1846 52.9754 80.971 57.0755 78.1034 60.7983C75.2358 64.4708 71.8148 67.6403 67.8405 70.3066C63.8661 72.973 59.4893 74.9099 54.71 76.1173V110ZM164.357 66.7599V45.1021C164.357 42.1339 163.779 39.3418 162.622 36.7257C161.515 34.0594 159.98 31.7452 158.018 29.7832C156.056 27.8211 153.742 26.2867 151.076 25.1799C148.46 24.0228 145.668 23.4443 142.699 23.4443C139.731 23.4443 136.914 24.0228 134.248 25.1799C131.632 26.2867 129.343 27.8211 127.381 29.7832C125.419 31.7452 123.859 34.0594 122.702 36.7257C121.595 39.3418 121.042 42.1339 121.042 45.1021V66.7599H164.357ZM186.015 110H164.357V88.3422H121.042V110H99.4593V45.1021C99.4593 39.1154 100.591 33.506 102.855 28.2739C105.119 22.9915 108.188 18.3883 112.062 14.4642C115.986 10.5402 120.564 7.44621 125.796 5.18233C131.078 2.91845 136.713 1.78651 142.699 1.78651C148.686 1.78651 154.296 2.91845 159.528 5.18233C164.81 7.44621 169.413 10.5402 173.337 14.4642C177.261 18.3883 180.355 22.9915 182.619 28.2739C184.883 33.506 186.015 39.1154 186.015 45.1021V110ZM198.466 34.2355C198.466 29.758 199.322 25.5573 201.032 21.6332C202.743 17.7091 205.057 14.2882 207.975 11.3703C210.943 8.40207 214.389 6.06273 218.313 4.35224C222.237 2.64175 226.438 1.78651 230.915 1.78651H280.57V23.4443H230.915C229.406 23.4443 227.997 23.721 226.689 24.2744C225.381 24.8278 224.224 25.6076 223.218 26.6137C222.262 27.5696 221.508 28.7015 220.954 30.0096C220.401 31.3176 220.124 32.7262 220.124 34.2355C220.124 35.7447 220.401 37.1785 220.954 38.5368C221.508 39.8449 222.262 41.002 223.218 42.0081C224.224 42.964 225.381 43.7186 226.689 44.272C227.997 44.8254 229.406 45.1021 230.915 45.1021H252.573C257.051 45.1021 261.251 45.9573 265.175 47.6678C269.15 49.328 272.596 51.6422 275.514 54.6104C278.482 57.5283 280.796 60.9744 282.456 64.9488C284.167 68.8728 285.022 73.0736 285.022 77.551C285.022 82.0285 284.167 86.2293 282.456 90.1533C280.796 94.0774 278.482 97.5235 275.514 100.492C272.596 103.41 269.15 105.724 265.175 107.434C261.251 109.145 257.051 110 252.573 110H204.503V88.3422H252.573C254.082 88.3422 255.491 88.0655 256.799 87.5121C258.107 86.9587 259.239 86.2041 260.195 85.2482C261.201 84.2421 261.981 83.085 262.534 81.777C263.088 80.4689 263.364 79.0603 263.364 77.551C263.364 76.0418 263.088 74.6332 262.534 73.3251C261.981 72.0171 261.201 70.8852 260.195 69.9293C259.239 68.9231 258.107 68.1434 256.799 67.59C255.491 67.0366 254.082 66.7599 252.573 66.7599H230.915C226.438 66.7599 222.237 65.9046 218.313 64.1942C214.389 62.4837 210.943 60.1695 207.975 57.2516C205.057 54.2834 202.743 50.8373 201.032 46.9132C199.322 42.9388 198.466 38.7129 198.466 34.2355ZM406.668 110H385.086V32.7262C385.086 31.217 384.784 29.8083 384.18 28.5003C383.627 27.1923 382.847 26.0603 381.841 25.1045C380.885 24.0983 379.753 23.3185 378.445 22.7651C377.137 22.2117 375.728 21.935 374.219 21.935C372.71 21.935 371.301 22.2117 369.993 22.7651C368.685 23.3185 367.528 24.0983 366.522 25.1045C365.566 26.0603 364.811 27.1923 364.258 28.5003C363.705 29.8083 363.428 31.217 363.428 32.7262V110H341.77V32.7262C341.77 31.217 341.493 29.8083 340.94 28.5003C340.387 27.1923 339.607 26.0603 338.601 25.1045C337.645 24.0983 336.513 23.3185 335.205 22.7651C333.897 22.2117 332.488 21.935 330.979 21.935C329.47 21.935 328.061 22.2117 326.753 22.7651C325.445 23.3185 324.288 24.0983 323.282 25.1045C322.326 26.0603 321.571 27.1923 321.018 28.5003C320.464 29.8083 320.188 31.217 320.188 32.7262V110H298.53V32.7262C298.53 28.2488 299.36 24.048 301.02 20.1239C302.731 16.1496 305.045 12.7034 307.963 9.78556C310.931 6.81736 314.377 4.50317 318.301 2.84299C322.275 1.1325 326.501 0.277257 330.979 0.277257C335.004 0.277257 338.877 1.00673 342.6 2.46568C346.323 3.87431 349.668 5.93696 352.637 8.65362C355.605 5.93696 358.925 3.87431 362.598 2.46568C366.321 1.00673 370.194 0.277257 374.219 0.277257C378.696 0.277257 382.897 1.1325 386.821 2.84299C390.796 4.50317 394.242 6.81736 397.16 9.78556C400.128 12.7034 402.442 16.1496 404.102 20.1239C405.813 24.048 406.668 28.2488 406.668 32.7262V110ZM500.242 110H426.062V1.78651H500.242V23.4443H447.72V45.1021H483.263V66.7599H447.72V88.3422H500.242V110ZM589.589 110H515.41V1.78651H589.589V23.4443H537.067V45.1021H572.61V66.7599H537.067V88.3422H589.589V110ZM691.313 110H668.146L626.415 38.7632V110H604.757V1.78651H627.925L669.655 73.0987V1.78651H691.313V110Z" fill="#BACDB0"/>
</svg>
