<svg version="1.1" id="Layer_1" xmlns="http://www.w3.org/2000/svg" xmlns:xlink="http://www.w3.org/1999/xlink" x="0px" y="0px"
	 width="100%" viewBox="0 0 1921 90" xml:space="preserve">
<path fill="#65996C" stroke="none" 
	d="
M1092.000000,91.000008 
	C1010.969055,91.000000 929.938171,91.000000 848.756592,90.616852 
	C847.424866,89.822533 846.251160,89.076729 845.061462,89.050285 
	C826.814209,88.644958 808.563660,88.387718 790.316589,87.976128 
	C781.729309,87.782417 773.148926,87.300484 764.563416,87.007614 
	C744.396484,86.319695 724.227417,85.693878 704.061218,84.984924 
	C697.306702,84.747467 690.559021,84.319733 683.807068,84.004524 
	C669.305359,83.327545 654.800964,82.708008 640.301453,81.987404 
	C628.129272,81.382454 615.960754,80.698631 603.793823,79.993950 
	C587.038391,79.023499 570.283508,78.040009 553.533264,76.984344 
	C544.358643,76.406128 535.193604,75.673050 526.024902,75.000862 
	C512.438171,74.004791 498.855072,72.955956 485.264496,72.014519 
	C474.601562,71.275871 463.928436,70.684761 453.262329,69.989609 
	C448.841553,69.701477 444.419159,69.394234 440.011536,68.954796 
	C427.171661,67.674652 414.344543,66.264938 401.501282,65.021141 
	C393.345642,64.231323 385.156036,63.782822 377.006958,62.937405 
	C365.494385,61.743050 354.009308,60.285709 342.504364,59.014202 
	C335.680969,58.260090 328.826385,57.774426 322.013702,56.940418 
	C312.169006,55.735241 302.360504,54.234936 292.516235,53.025787 
	C283.286377,51.892105 274.009155,51.132385 264.790771,49.919231 
	C253.526703,48.436855 242.308472,46.609608 231.058823,45.013103 
	C220.920441,43.574306 210.744675,42.387199 200.625015,40.831257 
	C188.943283,39.035141 177.311081,36.919441 165.646179,35.010799 
	C153.013580,32.943817 140.327194,31.178961 127.738823,28.875048 
	C112.818855,26.144415 97.956474,23.083971 83.109070,19.975744 
	C63.710045,15.914664 44.343399,11.697719 24.976688,7.484085 
	C16.965939,5.741178 8.991146,3.833009 1.000000,2.000000 
	C1.166561,1.666667 1.315706,1.056191 1.502476,1.044455 
	C2.830283,0.961017 4.165783,1.000000 5.498834,1.000000 
	C643.696838,1.000000 1281.894775,1.000000 1920.419312,1.378048 
	C1919.360718,2.167520 1917.994019,2.660187 1916.587769,2.978125 
	C1898.064697,7.165735 1879.571899,11.496444 1860.998657,15.449243 
	C1843.484375,19.176649 1825.904907,22.608400 1808.314453,25.962679 
	C1796.399170,28.234758 1784.417969,30.161814 1772.461792,32.217793 
	C1759.227051,34.493649 1745.998413,36.808155 1732.745972,38.977280 
	C1723.303101,40.522907 1713.826782,41.866222 1704.362793,43.281418 
	C1693.771851,44.865101 1683.191162,46.525871 1672.581055,47.969147 
	C1664.026245,49.132832 1655.422363,49.931126 1646.861938,51.056587 
	C1634.942749,52.623623 1623.061157,54.485489 1611.130859,55.956150 
	C1601.245850,57.174683 1591.301392,57.904705 1581.405029,59.040234 
	C1567.814331,60.599648 1554.257690,62.460197 1540.661377,63.964268 
	C1527.180908,65.455528 1513.675049,66.727661 1500.169678,67.980812 
	C1485.010742,69.387421 1469.843628,70.711365 1454.672729,71.984589 
	C1441.928467,73.054161 1429.176270,74.034836 1416.422729,74.989899 
	C1402.508667,76.031868 1388.593384,77.063255 1374.670776,77.982079 
	C1358.425293,79.054214 1342.172729,80.022575 1325.920654,80.992188 
	C1314.089722,81.698036 1302.257080,82.383179 1290.420654,82.986435 
	C1276.257812,83.708267 1262.091553,84.372482 1247.923706,84.989540 
	C1231.594238,85.700752 1215.262451,86.360764 1198.929565,86.989738 
	C1188.850098,87.377884 1178.769043,87.798393 1168.684692,87.973579 
	C1144.777100,88.388885 1120.867188,88.663582 1096.958252,89.007393 
	C1095.474609,89.028732 1093.978760,89.072739 1092.522339,89.311867 
	C1092.262939,89.354462 1092.169922,90.411430 1092.000000,91.000008 
z"/>
<path fill="none" stroke="none" 
	d="
M1.000000,2.468657 
	C8.991146,3.833009 16.965939,5.741178 24.976688,7.484085 
	C44.343399,11.697719 63.710045,15.914664 83.109070,19.975744 
	C97.956474,23.083971 112.818855,26.144415 127.738823,28.875048 
	C140.327194,31.178961 153.013580,32.943817 165.646179,35.010799 
	C177.311081,36.919441 188.943283,39.035141 200.625015,40.831257 
	C210.744675,42.387199 220.920441,43.574306 231.058823,45.013103 
	C242.308472,46.609608 253.526703,48.436855 264.790771,49.919231 
	C274.009155,51.132385 283.286377,51.892105 292.516235,53.025787 
	C302.360504,54.234936 312.169006,55.735241 322.013702,56.940418 
	C328.826385,57.774426 335.680969,58.260090 342.504364,59.014202 
	C354.009308,60.285709 365.494385,61.743050 377.006958,62.937405 
	C385.156036,63.782822 393.345642,64.231323 401.501282,65.021141 
	C414.344543,66.264938 427.171661,67.674652 440.011536,68.954796 
	C444.419159,69.394234 448.841553,69.701477 453.262329,69.989609 
	C463.928436,70.684761 474.601562,71.275871 485.264496,72.014519 
	C498.855072,72.955956 512.438171,74.004791 526.024902,75.000862 
	C535.193604,75.673050 544.358643,76.406128 553.533264,76.984344 
	C570.283508,78.040009 587.038391,79.023499 603.793823,79.993950 
	C615.960754,80.698631 628.129272,81.382454 640.301453,81.987404 
	C654.800964,82.708008 669.305359,83.327545 683.807068,84.004524 
	C690.559021,84.319733 697.306702,84.747467 704.061218,84.984924 
	C724.227417,85.693878 744.396484,86.319695 764.563416,87.007614 
	C773.148926,87.300484 781.729309,87.782417 790.316589,87.976128 
	C808.563660,88.387718 826.814209,88.644958 845.061462,89.050285 
	C846.251160,89.076729 847.424866,89.822533 848.302979,90.616852 
	C565.666687,91.000000 283.333313,91.000000 1.000000,91.000000 
	C1.000000,61.576599 1.000000,32.256958 1.000000,2.468657 
z"/>
<path fill="none" stroke="none" 
	d="
M1092.468628,91.000008 
	C1092.169922,90.411430 1092.262939,89.354462 1092.522339,89.311867 
	C1093.978760,89.072739 1095.474609,89.028732 1096.958252,89.007393 
	C1120.867188,88.663582 1144.777100,88.388885 1168.684692,87.973579 
	C1178.769043,87.798393 1188.850098,87.377884 1198.929565,86.989738 
	C1215.262451,86.360764 1231.594238,85.700752 1247.923706,84.989540 
	C1262.091553,84.372482 1276.257812,83.708267 1290.420654,82.986435 
	C1302.257080,82.383179 1314.089722,81.698036 1325.920654,80.992188 
	C1342.172729,80.022575 1358.425293,79.054214 1374.670776,77.982079 
	C1388.593384,77.063255 1402.508667,76.031868 1416.422729,74.989899 
	C1429.176270,74.034836 1441.928467,73.054161 1454.672729,71.984589 
	C1469.843628,70.711365 1485.010742,69.387421 1500.169678,67.980812 
	C1513.675049,66.727661 1527.180908,65.455528 1540.661377,63.964268 
	C1554.257690,62.460197 1567.814331,60.599648 1581.405029,59.040234 
	C1591.301392,57.904705 1601.245850,57.174683 1611.130859,55.956150 
	C1623.061157,54.485489 1634.942749,52.623623 1646.861938,51.056587 
	C1655.422363,49.931126 1664.026245,49.132832 1672.581055,47.969147 
	C1683.191162,46.525871 1693.771851,44.865101 1704.362793,43.281418 
	C1713.826782,41.866222 1723.303101,40.522907 1732.745972,38.977280 
	C1745.998413,36.808155 1759.227051,34.493649 1772.461792,32.217793 
	C1784.417969,30.161814 1796.399170,28.234758 1808.314453,25.962679 
	C1825.904907,22.608400 1843.484375,19.176649 1860.998657,15.449243 
	C1879.571899,11.496444 1898.064697,7.165735 1916.587769,2.978125 
	C1917.994019,2.660187 1919.360718,2.167520 1920.872925,1.378042 
	C1921.333374,2.332530 1921.954834,3.664510 1921.957520,4.997696 
	C1922.013306,33.650646 1922.000000,62.303722 1922.000000,91.000000 
	C1645.645752,91.000000 1369.291504,91.000000 1092.468628,91.000008 
z"/>
</svg>