<svg version="1.1" id="Layer_1" xmlns="http://www.w3.org/2000/svg" xmlns:xlink="http://www.w3.org/1999/xlink" x="0px" y="0px" width="100%" viewBox="0 0 1921 90" xml:space="preserve">
  <path fill="#65996C" opacity="1.000000" stroke="none" d="
M1921.000000,89.000000 
	C1920.666626,89.666649 1920.451904,90.783691 1919.976074,90.909058 
	C1918.885132,91.196457 1917.666626,91.000000 1916.500000,91.000000 
	C1279.500000,91.000000 642.500000,91.000687 5.500003,90.958832 
	C3.999980,90.958733 2.499999,90.333336 1.427045,89.500000 
	C2.853619,88.993416 3.898987,89.178268 4.845809,88.951561 
	C19.234346,85.506340 33.568451,81.822899 48.000053,78.571419 
	C63.092945,75.170959 78.255463,72.067711 93.427017,69.031754 
	C107.046112,66.306450 120.699348,63.739651 134.373535,61.305191 
	C146.965057,59.063480 159.596024,57.037907 172.225662,55.017338 
	C181.675232,53.505539 191.152252,52.165901 200.613480,50.726154 
	C210.872940,49.164948 221.112228,47.461002 231.390335,46.035809 
	C239.941971,44.850014 248.552597,44.092674 257.109131,42.938431 
	C268.532257,41.397495 279.904755,39.464622 291.342468,38.052299 
	C303.974792,36.492455 316.664948,35.407291 329.314301,33.977074 
	C346.318573,32.054451 363.297302,29.903765 380.306915,28.031561 
	C393.788910,26.547634 407.293396,25.253822 420.801392,24.023827 
	C436.459747,22.598024 452.131073,21.312326 467.800201,20.007141 
	C480.214905,18.973040 492.630615,17.944954 505.053528,17.016687 
	C519.299927,15.952166 533.553467,14.983164 547.806274,14.006091 
	C557.971680,13.309222 568.139343,12.642441 578.308899,12.007964 
	C589.474426,11.311347 600.641174,10.632450 611.810974,10.009352 
	C624.475708,9.302862 637.142700,8.632923 649.811707,8.009140 
	C664.142822,7.303522 678.474976,6.610490 692.810913,6.014575 
	C710.306946,5.287305 727.802979,4.502190 745.307007,4.043573 
	C765.213806,3.522000 785.129395,3.336280 805.040955,2.992457 
	C806.191589,2.972587 807.369873,2.962056 808.470703,2.687872 
	C808.768738,2.613626 808.830017,1.588609 809.000000,0.999996 
	C915.697571,1.000000 1022.395203,1.000000 1129.243408,1.383181 
	C1130.408203,2.177219 1131.411987,2.917644 1132.438354,2.950484 
	C1155.263550,3.680761 1178.092163,4.309043 1200.918335,5.012673 
	C1209.169312,5.267015 1217.416382,5.653038 1225.664185,6.002543 
	C1241.162109,6.659273 1256.661377,7.289243 1272.156250,8.013520 
	C1284.991333,8.613472 1297.822266,9.309530 1310.652710,10.006565 
	C1322.320435,10.640430 1333.987793,11.284616 1345.649902,12.011629 
	C1360.902344,12.962460 1376.152100,13.961025 1391.398071,15.010341 
	C1405.150879,15.956889 1418.894897,17.031092 1432.646973,17.989300 
	C1442.974854,18.708925 1453.310547,19.317522 1463.640503,20.008745 
	C1468.059570,20.304449 1472.480225,20.609959 1476.887573,21.040232 
	C1490.056641,22.325874 1503.215698,23.714178 1516.386230,24.985386 
	C1524.209229,25.740456 1532.062256,26.206121 1539.873535,27.060404 
	C1550.718140,28.246452 1561.526611,29.763039 1572.369263,30.969679 
	C1579.848022,31.801960 1587.379028,32.178089 1594.849976,33.066216 
	C1604.530884,34.217098 1614.164185,35.764320 1623.838989,36.973732 
	C1632.899658,38.106392 1642.007812,38.868607 1651.058350,40.070271 
	C1662.317261,41.565174 1673.530762,43.398994 1684.778442,44.983490 
	C1694.918457,46.411945 1705.106567,47.520355 1715.221680,49.100533 
	C1726.567261,50.872925 1737.841675,53.095943 1749.170898,54.978954 
	C1763.869263,57.421951 1778.631104,59.501659 1793.291870,62.146618 
	C1808.213989,64.838737 1823.069214,67.918762 1837.912720,71.025131 
	C1857.306274,75.083733 1876.662109,79.323662 1896.029175,83.508904 
	C1904.359253,85.309105 1912.676758,87.167870 1921.000000,89.000000 
z"/>
</svg>